<?xml version="1.0" encoding="UTF-8" standalone="no"?>
<!-- Created with Inkscape (http://www.inkscape.org/) -->

<svg
   width="8mm"
   height="8mm"
   viewBox="0 0 10.699999 10.7"
   version="1.1"
   id="svg13955"
   inkscape:version="1.1.2 (0a00cf5339, 2022-02-04, custom)"
   sodipodi:docname="fireeye.svg"
   xmlns:inkscape="http://www.inkscape.org/namespaces/inkscape"
   xmlns:sodipodi="http://sodipodi.sourceforge.net/DTD/sodipodi-0.dtd"
   xmlns="http://www.w3.org/2000/svg"
   xmlns:svg="http://www.w3.org/2000/svg">
  <sodipodi:namedview
     id="namedview13957"
     pagecolor="#505050"
     bordercolor="#ffffff"
     borderopacity="1"
     inkscape:pageshadow="0"
     inkscape:pageopacity="0"
     inkscape:pagecheckerboard="1"
     inkscape:document-units="mm"
     showgrid="false"
     inkscape:zoom="11.378109"
     inkscape:cx="-2.812418"
     inkscape:cy="27.157412"
     inkscape:window-width="2560"
     inkscape:window-height="1368"
     inkscape:window-x="2560"
     inkscape:window-y="18"
     inkscape:window-maximized="1"
     inkscape:current-layer="g368" />
  <defs
     id="defs13952">
    <clipPath
       clipPathUnits="userSpaceOnUse"
       id="clipPath374">
      <path
         d="M 34.925,711.985 H 198.426 V 743.11 H 34.925 Z"
         id="path372"
         inkscape:connector-curvature="0" />
    </clipPath>
  </defs>
  <g
     inkscape:label="Layer 1"
     inkscape:groupmode="layer"
     id="layer1">
    <g
       inkscape:label="Layer 1"
       id="layer1-3"
       transform="translate(89.356222,79.092109)">
      <g
         transform="matrix(0.35277777,0,0,-0.35277777,-97.856951,248.99903)"
         id="g368">
        <g
           id="g370"
           clip-path="url(#clipPath374)"
           transform="translate(-10.828445,187.32435)">
          <g
             id="g408"
             transform="translate(57.0925,736.2676)">
            <path
               d="M 0,0 C 0.277,-0.054 0.539,0.146 0.553,0.428 0.619,1.751 0.544,4.999 -1.625,5.801 -4.437,6.842 -8.971,5.384 -12.451,3.402 c -3.523,-2.007 -7.951,-6.705 -9.717,-11.487 0,0 6.548,5.663 13.273,7.314 C -3.829,0.473 -1.058,0.207 0,0"
               style="fill:#cc1b26;fill-opacity:1;fill-rule:nonzero;stroke:none"
               id="path410"
               inkscape:connector-curvature="0" />
          </g>
          <g
             id="g412"
             transform="translate(40.5998,728.0023)">
            <path
               d="m 0,0 c -0.091,0.267 -0.396,0.393 -0.647,0.265 -1.179,-0.604 -3.954,-2.294 -3.565,-4.573 0.505,-2.956 4.035,-6.153 7.492,-8.176 3.499,-2.048 9.782,-3.534 14.805,-2.671 0,0 -8.177,2.839 -12.97,7.837 C 1.504,-3.552 0.35,-1.02 0,0"
               style="fill:#cc1b26;fill-opacity:1;fill-rule:nonzero;stroke:none"
               id="path414"
               inkscape:connector-curvature="0" />
          </g>
          <g
             id="g416"
             transform="translate(56.0731,717.7266)">
            <path
               d="m 0,0 c -0.185,-0.213 -0.142,-0.54 0.094,-0.693 1.113,-0.719 3.963,-2.277 5.742,-0.8 2.308,1.914 3.312,6.571 3.335,10.575 0.024,4.054 -1.83,10.238 -5.089,14.158 0,0 1.63,-8.502 -0.302,-15.151 C 2.324,3.079 0.708,0.813 0,0"
               style="fill:#cc1b26;fill-opacity:1;fill-rule:nonzero;stroke:none"
               id="path418"
               inkscape:connector-curvature="0" />
          </g>
        </g>
      </g>
    </g>
  </g>
</svg>
