<?xml version="1.0" encoding="UTF-8" standalone="no"?>
<svg
   width="8mm"
   height="8mm"
   id="Layer_1"
   version="1.1"
   viewBox="0 0 306.13099 337.78711"
   xml:space="preserve"
   sodipodi:docname="cpp.svg"
   inkscape:version="1.1.2 (0a00cf5339, 2022-02-04, custom)"
   xmlns:inkscape="http://www.inkscape.org/namespaces/inkscape"
   xmlns:sodipodi="http://sodipodi.sourceforge.net/DTD/sodipodi-0.dtd"
   xmlns="http://www.w3.org/2000/svg"
   xmlns:svg="http://www.w3.org/2000/svg"><defs
     id="defs232" /><sodipodi:namedview
     id="namedview230"
     pagecolor="#505050"
     bordercolor="#ffffff"
     borderopacity="1"
     inkscape:pageshadow="0"
     inkscape:pageopacity="0"
     inkscape:pagecheckerboard="1"
     inkscape:document-units="mm"
     showgrid="false"
     width="6.062mm"
     height="6.822mm"
     inkscape:zoom="30.047017"
     inkscape:cx="10.516851"
     inkscape:cy="4.6926456"
     inkscape:window-width="2560"
     inkscape:window-height="1368"
     inkscape:window-x="2560"
     inkscape:window-y="18"
     inkscape:window-maximized="1"
     inkscape:current-layer="Layer_1" /><style
     type="text/css"
     id="style209">
	.st0{fill:#00599C;}
	.st1{fill:#004482;}
	.st2{fill:#659AD2;}
	.st3{fill:#FFFFFF;}
</style><path
     class="st0"
     d="m 302.19201,254.98385 c 2.40101,-4.15899 3.89301,-8.845 3.89301,-13.05298 V 95.861871 c 0,-4.208 -1.48999,-8.89299 -3.892,-13.052 l -149.108,86.087009 z"
     id="path211" /><path
     class="st1"
     d="m 166.33502,337.91485 126.5,-73.034 c 3.64401,-2.104 6.95599,-5.737 9.35699,-9.897 L 153.08502,168.89688 3.9780198,254.98486 c 2.400997,4.159 5.714001,7.793 9.3569972,9.896 l 126.500003,73.03399 c 7.287,4.20801 19.213,4.20801 26.5,0 z"
     id="path213" /><path
     class="st2"
     d="m 302.19302,82.808861 c -2.40201,-4.15999 -5.71499,-7.79299 -9.358,-9.897 l -126.5,-73.03399519 c -7.287,-4.20800001 -19.213,-4.20800001 -26.5,0 L 13.335017,72.911861 c -7.2880012,4.20701 -13.24999917,14.535 -13.24999917,22.95001 V 241.93087 c 0,4.20797 1.49100097,8.89398 3.89300197,13.05297 L 153.08502,168.89688 Z"
     id="path215" /><g
     id="g219"
     transform="translate(-48.914983,-29.160648)"><path
       class="st3"
       d="m 202,300.0575 c -56.243,0 -102,-45.75699 -102,-101.99999 0,-56.243 45.757,-102.000007 102,-102.000007 36.29199,0 70.13901,19.529997 88.33099,50.968007 l -44.143,25.54401 c -9.105,-15.73601 -26.03799,-25.51201 -44.18801,-25.51201 -28.12199,0 -51,22.87801 -51,51 0,28.121 22.87801,51 51,51 18.152,0 35.08501,-9.776 44.191,-25.515 l 44.143,25.543 C 272.142,280.52652 238.29401,300.0575 202,300.0575 Z"
       id="path217" /></g><g
     id="g223"
     transform="translate(-48.914983,-29.160648)"><polygon
       class="st3"
       points="292.66602,181.05753 281.33398,181.05753 281.33398,192.39052 270,192.39052 270,203.72353 281.33398,203.72353 281.33398,215.05753 292.66602,215.05753 292.66602,203.72353 304,203.72353 304,192.39052 292.66602,192.39052 "
       id="polygon221" /></g><g
     id="g227"
     transform="translate(-48.914983,-29.160648)"><polygon
       class="st3"
       points="335.16598,181.05753 323.83402,181.05753 323.83402,192.39052 312.5,192.39052 312.5,203.72353 323.83402,203.72353 323.83402,215.05753 335.16598,215.05753 335.16598,203.72353 346.5,203.72353 346.5,192.39052 335.16598,192.39052 "
       id="polygon225" /></g></svg>
