<?xml version="1.0" encoding="UTF-8" standalone="no"?>
<!-- Created with Inkscape (http://www.inkscape.org/) -->

<svg
   width="8mm"
   height="8mm"
   viewBox="0 0 8 8"
   version="1.1"
   id="svg14212"
   inkscape:version="1.1.2 (0a00cf5339, 2022-02-04, custom)"
   sodipodi:docname="splunk2.svg"
   xmlns:inkscape="http://www.inkscape.org/namespaces/inkscape"
   xmlns:sodipodi="http://sodipodi.sourceforge.net/DTD/sodipodi-0.dtd"
   xmlns="http://www.w3.org/2000/svg"
   xmlns:svg="http://www.w3.org/2000/svg">
  <sodipodi:namedview
     id="namedview14214"
     pagecolor="#505050"
     bordercolor="#ffffff"
     borderopacity="1"
     inkscape:pageshadow="0"
     inkscape:pageopacity="0"
     inkscape:pagecheckerboard="1"
     inkscape:document-units="mm"
     showgrid="false"
     inkscape:zoom="2.6469955"
     inkscape:cx="-6.4223759"
     inkscape:cy="30.222945"
     inkscape:window-width="2560"
     inkscape:window-height="1368"
     inkscape:window-x="2560"
     inkscape:window-y="18"
     inkscape:window-maximized="1"
     inkscape:current-layer="layer1" />
  <defs
     id="defs14209" />
  <g
     inkscape:label="Layer 1"
     inkscape:groupmode="layer"
     id="layer1">
    <g
       id="g14386"
       transform="matrix(0.02165088,0,0,0.02165088,5.3694183,6.1488501)">
      <rect
         x="-248"
         y="-284"
         width="369.5"
         height="369.5"
         id="rect14351" />
      <path
         class="st0"
         d="m -171.9,-89.8 c 0,1.8 -0.4,3.7 -1.2,5.3 -0.8,1.6 -1.9,3 -3.4,4.1 -1.5,1.2 -3.3,2.1 -5.1,2.7 -2.1,0.6 -4.3,1 -6.5,0.9 -2.6,0 -5.1,-0.3 -7.6,-1.1 -2.4,-0.9 -4.7,-2.2 -6.7,-3.9 l 3.7,-6 c 1.5,1.3 3.1,2.4 4.8,3.3 1.4,0.7 2.9,1.1 4.5,1.1 1.6,0.1 3.2,-0.4 4.4,-1.4 1.1,-1 1.7,-2.4 1.7,-3.8 0,-0.7 -0.1,-1.3 -0.3,-1.9 -0.3,-0.7 -0.6,-1.3 -1.1,-1.8 -0.7,-0.7 -1.5,-1.4 -2.3,-2 -0.9,-0.7 -2.2,-1.6 -3.7,-2.7 -1.2,-0.9 -2.3,-1.8 -3.4,-2.7 -1.1,-0.8 -2,-1.7 -3,-2.7 -0.9,-1 -1.6,-2.1 -2.2,-3.3 -0.6,-1.3 -0.9,-2.7 -0.9,-4.2 0,-1.7 0.4,-3.3 1.1,-4.9 0.8,-1.4 1.8,-2.7 3.1,-3.7 1.4,-1.1 3,-1.9 4.6,-2.4 1.9,-0.6 3.9,-0.9 5.9,-0.9 2.2,0 4.4,0.2 6.6,0.8 2.1,0.6 4,1.5 5.8,2.7 l -3.4,5.3 c -2.1,-1.5 -4.6,-2.4 -7.2,-2.4 -1.4,-0.1 -2.7,0.4 -3.8,1.2 -1,0.7 -1.5,1.8 -1.5,3 0,1.2 0.5,2.3 1.3,3.1 1.4,1.4 3,2.7 4.6,3.9 2.2,1.6 4,3 5.3,4.2 1.3,1 2.4,2.2 3.4,3.4 0.8,1 1.4,2.1 1.7,3.2 0.7,1.2 0.9,2.4 0.8,3.6"
         id="path14355" />
      <path
         class="st0"
         d="m -133.8,-99.9 c 0.2,-3.9 -0.8,-7.8 -2.9,-11.2 -1.7,-2.6 -4.7,-4.2 -7.8,-4.1 -3.3,-0.1 -6.4,1.6 -8.2,4.3 -2.2,3.5 -3.3,7.6 -3,11.8 -0.2,4 0.8,8 3,11.4 1.8,2.7 4.9,4.2 8.2,4.1 1.8,0.1 3.7,-0.5 5.1,-1.6 1.4,-1.1 2.5,-2.5 3.3,-4.1 0.9,-1.7 1.5,-3.5 1.8,-5.3 0.3,-1.7 0.5,-3.5 0.5,-5.3 m 12,-0.4 c 0,3.2 -0.5,6.3 -1.5,9.3 -1,2.7 -2.4,5.2 -4.3,7.4 -3.7,4.3 -9.1,6.8 -14.8,6.7 -1.2,0 -2.5,-0.1 -3.7,-0.3 -1.1,-0.2 -2.2,-0.6 -3.3,-1.2 -1.1,-0.6 -2.1,-1.3 -3.1,-2.1 -1.1,-1 -2.2,-2.1 -3.1,-3.2 v 27.3 h -11.1 v -64.5 h 11.1 v 6.3 c 1.8,-2.3 4,-4.2 6.6,-5.5 2.6,-1.2 5.4,-1.8 8.2,-1.8 2.7,0 5.3,0.5 7.7,1.6 2.3,1 4.3,2.5 6,4.4 1.7,2 3.1,4.3 3.9,6.8 1,2.8 1.4,5.8 1.4,8.8"
         id="path14357" />
      <rect
         x="-116.9"
         y="-141"
         class="st0"
         width="11.3"
         height="63.099998"
         id="rect14359" />
      <path
         class="st0"
         d="m -68.4,-77.9 v -5.8 c -1.9,2.2 -4.1,4 -6.7,5.3 -2.5,1.1 -5.3,1.7 -8,1.6 -3,0.1 -5.9,-0.6 -8.6,-2 -2.3,-1.4 -4.1,-3.5 -5,-6 -0.3,-0.6 -0.5,-1.3 -0.6,-2 -0.1,-0.7 -0.3,-1.5 -0.4,-2.4 -0.1,-1 -0.2,-2 -0.2,-3.1 0,-1.2 0,-2.6 0,-4.2 V -121 h 11.3 v 24.7 c 0,1.7 0.1,3.3 0.3,5 0.2,1.1 0.6,2.2 1.1,3.1 1.4,2.5 4.2,3.9 7,3.6 3.8,0.3 7.3,-1.8 8.8,-5.3 0.4,-1 0.7,-2 0.9,-3.1 0.2,-1.6 0.3,-3.2 0.3,-4.8 V -121 H -57 v 43.1 z"
         id="path14361" />
      <path
         class="st0"
         d="m -19.4,-77.9 v -24.7 c 0,-1.7 -0.1,-3.3 -0.3,-5 -0.2,-1.1 -0.5,-2.1 -1.1,-3.1 -1.4,-2.5 -4.2,-3.9 -7,-3.6 -1.9,-0.1 -3.8,0.4 -5.5,1.3 -1.5,0.9 -2.7,2.3 -3.4,3.9 -0.4,1 -0.7,2.1 -0.8,3.1 -0.2,1.6 -0.2,3.1 -0.2,4.7 V -78 h -11.4 v -42.9 h 11.4 v 5.8 c 1.9,-2.2 4.1,-4 6.7,-5.3 2.5,-1.1 5.3,-1.7 8,-1.6 3,-0.1 6,0.6 8.6,2.1 2.3,1.4 4.1,3.5 5,6 0.2,0.6 0.4,1.3 0.6,1.9 0.2,0.7 0.3,1.5 0.4,2.3 0.1,1 0.2,2 0.2,3 0,1.2 0,2.6 0,4.3 V -78 Z"
         id="path14363" />
      <polygon
         class="st0"
         points="36.2,-117.9 21.6,-102.2 38.9,-80.7 28.3,-77 11.2,-100.8 11.2,-77.9 -0.3,-77.9 -0.3,-141 11.2,-141 11.2,-103.9 12.4,-103.9 27.6,-121.6 "
         id="polygon14365" />
      <polygon
         class="st1"
         points="75.4,-99.8 48.7,-112.7 48.7,-120.5 83.1,-103.2 83.1,-96.2 48.7,-79.1 48.7,-86.6 "
         id="polygon14367" />
      <path
         class="st1"
         d="m 52.1,-131.6 c 2.1,0 3.8,1.8 3.8,3.9 0,2.1 -1.8,3.8 -3.9,3.8 -2.1,0 -3.8,-1.8 -3.8,-3.9 0,-2.1 1.7,-3.8 3.8,-3.9 -0.1,0.1 -0.1,0.1 0.1,0.1 z m 0,0.6 c -1.8,0 -3.1,1.5 -3.1,3.3 0,0 0,0 0,0 0,1.7 1.4,3.1 3.1,3.1 1.7,0 3.1,-1.4 3.1,-3.1 0,0 0,0 0,0 0,-1.8 -1.4,-3.3 -3.1,-3.3 0,0 0,0 0,0 z m -0.8,5.5 h -0.7 v -4.3 c 0.4,0 0.8,0 1.2,0 0.5,0 0.9,0.1 1.3,0.3 0.3,0.2 0.4,0.5 0.4,0.9 0,0.5 -0.4,0.9 -0.9,1 v 0 c 0.4,0 0.6,0.4 0.7,1 0,0.4 0.1,0.7 0.3,1.1 H 53 c -0.2,-0.4 -0.3,-0.7 -0.3,-1.1 0,-0.4 -0.4,-0.8 -0.8,-0.8 0,0 -0.1,0 -0.1,0 h -0.5 z m 0,-2.4 h 0.5 c 0.6,0 1,-0.2 1,-0.7 0,-0.5 -0.3,-0.6 -1.1,-0.6 h -0.5 v 1.3 z"
         id="path14369" />
    </g>
  </g>
  <style
     type="text/css"
     id="style14349">
	.st0{fill:#FFFFFF;}
	.st1{fill:#99999A;}
</style>
</svg>
