<?xml version="1.0" encoding="UTF-8" standalone="no"?>
<!-- Created with Inkscape (http://www.inkscape.org/) -->

<svg
   width="8mm"
   height="8mm"
   viewBox="0 0 6.085 6.0850001"
   version="1.1"
   id="svg1608"
   sodipodi:docname="sql.svg"
   inkscape:version="1.1.2 (0a00cf5339, 2022-02-04, custom)"
   xmlns:inkscape="http://www.inkscape.org/namespaces/inkscape"
   xmlns:sodipodi="http://sodipodi.sourceforge.net/DTD/sodipodi-0.dtd"
   xmlns="http://www.w3.org/2000/svg"
   xmlns:svg="http://www.w3.org/2000/svg">
  <sodipodi:namedview
     id="namedview1610"
     pagecolor="#505050"
     bordercolor="#ffffff"
     borderopacity="1"
     inkscape:pageshadow="0"
     inkscape:pageopacity="0"
     inkscape:pagecheckerboard="1"
     inkscape:document-units="mm"
     showgrid="false"
     inkscape:zoom="30.831779"
     inkscape:cx="15.373748"
     inkscape:cy="10.508638"
     inkscape:window-width="2560"
     inkscape:window-height="1368"
     inkscape:window-x="2560"
     inkscape:window-y="18"
     inkscape:window-maximized="1"
     inkscape:current-layer="layer1" />
  <defs
     id="defs1605" />
  <g
     inkscape:label="Layer 1"
     inkscape:groupmode="layer"
     id="layer1">
    <path
       d="m 3.353764,3.8905595 c -0.05622,0.0201 -0.116845,0.031 -0.180056,0.031 h -0.262 c -0.293947,0 -0.530458,-0.23762 -0.530458,-0.53073 v -0.79062 c 0,-0.29617 0.237494,-0.53073 0.530458,-0.53073 h 0.262 c 0.293947,0 0.530458,0.23761 0.530458,0.53073 v 0.79062 c 0,0.13368 -0.04839,0.25482 -0.128433,0.3475 l 0.19928,0.19928 -0.187089,0.18709 z M 3.120203,3.6569995 H 2.91014 c -0.147186,0 -0.264307,-0.11844 -0.264307,-0.26454 v -0.79385 c 0,-0.14713 0.118334,-0.26453 0.264307,-0.26453 h 0.265136 c 0.147187,0 0.264307,0.11843 0.264307,0.26453 v 0.79385 c 0,0.0594 -0.01928,0.11393 -0.05187,0.15787 L 3.02666,3.1892695 2.839572,3.3763595 Z M 0.795562,1.2757495 C 0.356185,1.2757495 0,1.6308895 0,2.0691695 v 1.85273 c 0,0.4382 0.353481,0.79343 0.795562,0.79343 h 4.494293 c 0.439376,0 0.795561,-0.35514 0.795561,-0.79343 v -1.85273 c 0,-0.43819 -0.353481,-0.79342 -0.795561,-0.79342 z m 0.528646,0.79375 c -0.292964,0 -0.530458,0.23487 -0.530458,0.52916 0,0.29225 0.234878,0.52917 0.529166,0.52917 h 0.262105 c 0.147494,0 0.267062,0.11744 0.267062,0.26458 0,0.14613 -0.11712,0.26459 -0.264307,0.26459 H 1.32264 c -0.145973,0 -0.264307,-0.12073 -0.264307,-0.26341 v -0.003 H 0.79375 v 0.002 c 0,0.2924 0.236511,0.52945 0.530458,0.52945 h 0.262 c 0.292964,0 0.530458,-0.23488 0.530458,-0.52917 0,-0.29225 -0.234878,-0.52917 -0.529166,-0.52917 H 1.325395 c -0.147494,1e-5 -0.267062,-0.11743 -0.267062,-0.26458 0,-0.14612 0.117121,-0.26458 0.264307,-0.26458 h 0.265136 c 0.145973,0 0.264307,0.1199 0.264307,0.26458 h 0.264583 c 0,-0.29225 -0.236511,-0.52916 -0.530458,-0.52916 z m 3.967458,1.5875 v 0.26458 H 3.96875 v -1.85208 h 0.264583 v 1.5875 z"
       id="file-sql"
       style="fill:#157efb;fill-rule:evenodd;stroke:none;stroke-width:0.264583" />
  </g>
</svg>
